<svg id="visual" viewBox="0 0 900 200" width="900" height="200" xmlns="http://www.w3.org/2000/svg" xmlns:xlink="http://www.w3.org/1999/xlink" version="1.1"><rect x="0" y="0" width="900" height="200" fill="#312e83"></rect><path d="M0 112L25 111.5C50 111 100 110 150 113C200 116 250 123 300 117.7C350 112.3 400 94.7 450 88C500 81.3 550 85.7 600 88.7C650 91.7 700 93.3 750 89.8C800 86.3 850 77.7 875 73.3L900 69L900 201L875 201C850 201 800 201 750 201C700 201 650 201 600 201C550 201 500 201 450 201C400 201 350 201 300 201C250 201 200 201 150 201C100 201 50 201 25 201L0 201Z" fill="#a5b4fc"></path><path d="M0 113L25 116C50 119 100 125 150 130.5C200 136 250 141 300 133.8C350 126.7 400 107.3 450 105.8C500 104.3 550 120.7 600 124.3C650 128 700 119 750 114.2C800 109.3 850 108.7 875 108.3L900 108L900 201L875 201C850 201 800 201 750 201C700 201 650 201 600 201C550 201 500 201 450 201C400 201 350 201 300 201C250 201 200 201 150 201C100 201 50 201 25 201L0 201Z" fill="#898fe5"></path><path d="M0 137L25 134.8C50 132.7 100 128.3 150 125.3C200 122.3 250 120.7 300 126C350 131.3 400 143.7 450 148.8C500 154 550 152 600 145.2C650 138.3 700 126.7 750 126.2C800 125.7 850 136.3 875 141.7L900 147L900 201L875 201C850 201 800 201 750 201C700 201 650 201 600 201C550 201 500 201 450 201C400 201 350 201 300 201C250 201 200 201 150 201C100 201 50 201 25 201L0 201Z" fill="#716bcc"></path><path d="M0 138L25 137.5C50 137 100 136 150 136.7C200 137.3 250 139.7 300 141.5C350 143.3 400 144.7 450 141.5C500 138.3 550 130.7 600 132.7C650 134.7 700 146.3 750 154.2C800 162 850 166 875 168L900 170L900 201L875 201C850 201 800 201 750 201C700 201 650 201 600 201C550 201 500 201 450 201C400 201 350 201 300 201C250 201 200 201 150 201C100 201 50 201 25 201L0 201Z" fill="#5d46b1"></path><path d="M0 183L25 182C50 181 100 179 150 173.3C200 167.7 250 158.3 300 160.3C350 162.3 400 175.7 450 179.3C500 183 550 177 600 175.5C650 174 700 177 750 175.3C800 173.7 850 167.3 875 164.2L900 161L900 201L875 201C850 201 800 201 750 201C700 201 650 201 600 201C550 201 500 201 450 201C400 201 350 201 300 201C250 201 200 201 150 201C100 201 50 201 25 201L0 201Z" fill="#4c1d95"></path></svg>